<svg id="Camada_1" data-name="Camada 1" xmlns="http://www.w3.org/2000/svg" viewBox="0 0 96 27"><defs><style>.cls-1{fill:#181717;}.cls-2{fill:#fff;}</style></defs><rect class="cls-1" width="96" height="27" rx="10"/><path class="cls-2" d="M30,6.61a8.14,8.14,0,0,0-2.58,15.86c.41.08.56-.17.56-.39s0-.7,0-1.38c-2.26.49-2.74-1.09-2.74-1.09a2.14,2.14,0,0,0-.91-1.19c-.73-.51.06-.5.06-.5a1.72,1.72,0,0,1,1.25.84,1.75,1.75,0,0,0,2.37.68,1.72,1.72,0,0,1,.51-1.09c-1.81-.21-3.71-.91-3.71-4a3.16,3.16,0,0,1,.84-2.19A2.93,2.93,0,0,1,25.71,10s.69-.22,2.24.83a7.8,7.8,0,0,1,4.07,0c1.55-1.05,2.23-.83,2.23-.83a3,3,0,0,1,.08,2.15,3.16,3.16,0,0,1,.83,2.19c0,3.12-1.9,3.81-3.71,4A1.92,1.92,0,0,1,32,19.85c0,1.09,0,2,0,2.22s.14.47.56.39A8.13,8.13,0,0,0,30,6.61" transform="translate(-2.5 -1.5)"/><path class="cls-2" d="M51.94,13.41a2.13,2.13,0,0,0-.84-.94,2.33,2.33,0,0,0-1.28-.34,2.54,2.54,0,0,0-1.31.34,2.31,2.31,0,0,0-.92,1,3.22,3.22,0,0,0,0,2.88,2.37,2.37,0,0,0,.92,1,2.63,2.63,0,0,0,1.31.33A2.36,2.36,0,0,0,51.5,17a2.47,2.47,0,0,0,.77-1.65H49.49V14.6h3.75v.7A3.43,3.43,0,0,1,51.49,18a3.44,3.44,0,0,1-1.67.41A3.58,3.58,0,0,1,48.05,18a3.41,3.41,0,0,1-1.26-1.27,3.8,3.8,0,0,1,0-3.66,3.27,3.27,0,0,1,1.26-1.27,3.49,3.49,0,0,1,1.77-.46,3.62,3.62,0,0,1,2,.55A3.18,3.18,0,0,1,53,13.41Z" transform="translate(-2.5 -1.5)"/><path class="cls-2" d="M55.44,18.1a2.4,2.4,0,0,1-1-1,3,3,0,0,1-.36-1.5,3,3,0,0,1,.37-1.48,2.48,2.48,0,0,1,1-1,3,3,0,0,1,2.82,0,2.55,2.55,0,0,1,1,1,3,3,0,0,1,.36,1.49,2.93,2.93,0,0,1-.37,1.5,2.56,2.56,0,0,1-1,1,2.82,2.82,0,0,1-1.42.35A2.71,2.71,0,0,1,55.44,18.1Zm2.31-.68a1.72,1.72,0,0,0,.7-.69,2.16,2.16,0,0,0,.26-1.12,2.18,2.18,0,0,0-.26-1.12,1.71,1.71,0,0,0-.68-.68,1.92,1.92,0,0,0-1.82,0,1.69,1.69,0,0,0-.67.68A2.41,2.41,0,0,0,55,15.61a2.28,2.28,0,0,0,.25,1.13,1.61,1.61,0,0,0,.65.69,1.87,1.87,0,0,0,.9.22A1.82,1.82,0,0,0,57.75,17.42Z" transform="translate(-2.5 -1.5)"/><path class="cls-2" d="M65.56,12.88l-3.3,8.06h-.94L62.4,18.3l-2.21-5.42h1l1.72,4.44,1.7-4.44Z" transform="translate(-2.5 -1.5)"/><path class="cls-2" d="M67.58,13.63v3.23a.79.79,0,0,0,.17.57.85.85,0,0,0,.59.16H69v.77h-.82A1.62,1.62,0,0,1,67.05,18a1.5,1.5,0,0,1-.38-1.15V13.63H66v-.75h.71V11.5h.91v1.38H69v.75Z" transform="translate(-2.5 -1.5)"/><path class="cls-2" d="M70.11,14.13a2.49,2.49,0,0,1,.94-1,2.61,2.61,0,0,1,1.32-.35,2.49,2.49,0,0,1,1.25.31,2,2,0,0,1,.79.78v-1h.92v5.48h-.92v-1a2.19,2.19,0,0,1-.8.8,2.42,2.42,0,0,1-1.25.31,2.48,2.48,0,0,1-2.25-1.37,3.2,3.2,0,0,1-.34-1.48A3.13,3.13,0,0,1,70.11,14.13Zm4,.4a1.74,1.74,0,0,0-.67-.7,1.79,1.79,0,0,0-.94-.25,1.84,1.84,0,0,0-.93.24,1.81,1.81,0,0,0-.67.7,2.33,2.33,0,0,0-.25,1.08A2.38,2.38,0,0,0,71,16.7a1.75,1.75,0,0,0,1.6.95,1.88,1.88,0,0,0,.94-.24,1.77,1.77,0,0,0,.67-.71,2.48,2.48,0,0,0,0-2.17Z" transform="translate(-2.5 -1.5)"/><path class="cls-2" d="M76.9,11.81a.59.59,0,0,1-.18-.44.61.61,0,0,1,.62-.62.58.58,0,0,1,.43.18.64.64,0,0,1,.17.44.62.62,0,0,1-.17.44.58.58,0,0,1-.43.18A.6.6,0,0,1,76.9,11.81Zm.88,1.07v5.48h-.91V12.88Z" transform="translate(-2.5 -1.5)"/></svg>