<svg id="Camada_1" data-name="Camada 1" xmlns="http://www.w3.org/2000/svg" viewBox="0 0 96 27"><defs><style>.cls-1{fill:#ea4335;}.cls-2{fill:#fff;}</style></defs><rect class="cls-1" width="96" height="27" rx="10"/><path class="cls-2" d="M38.39,13.62a2.41,2.41,0,0,1,.93-1,2.63,2.63,0,0,1,1.34-.35,2.47,2.47,0,0,1,1.19.3,2.16,2.16,0,0,1,.84.77v-2.9h.92v7.4h-.92v-1a2.14,2.14,0,0,1-.8.81,2.4,2.4,0,0,1-1.24.31,2.48,2.48,0,0,1-2.26-1.37,3.11,3.11,0,0,1-.34-1.48A3,3,0,0,1,38.39,13.62Zm4,.4a1.7,1.7,0,0,0-.68-.7,1.75,1.75,0,0,0-.93-.25,1.84,1.84,0,0,0-.93.24,1.68,1.68,0,0,0-.67.7A2.21,2.21,0,0,0,39,15.09a2.26,2.26,0,0,0,.25,1.1,1.77,1.77,0,0,0,.67.71,1.92,1.92,0,0,0,1.86,0,1.79,1.79,0,0,0,.68-.71,2.37,2.37,0,0,0,.25-1.09A2.33,2.33,0,0,0,42.44,14Z" transform="translate(-2.5 -1.5)"/><path class="cls-2" d="M50.12,15.45H45.74a1.71,1.71,0,0,0,1.78,1.72,1.69,1.69,0,0,0,1-.27,1.47,1.47,0,0,0,.56-.74h1a2.37,2.37,0,0,1-.88,1.29,2.66,2.66,0,0,1-1.64.49,2.82,2.82,0,0,1-1.4-.35,2.41,2.41,0,0,1-1-1,3,3,0,0,1-.35-1.5,3.09,3.09,0,0,1,.34-1.49,2.3,2.3,0,0,1,1-1,2.85,2.85,0,0,1,1.42-.35,2.72,2.72,0,0,1,1.38.34,2.31,2.31,0,0,1,.92.94,2.69,2.69,0,0,1,.33,1.34A5.36,5.36,0,0,1,50.12,15.45ZM49,13.82a1.51,1.51,0,0,0-.63-.57,1.92,1.92,0,0,0-.87-.2,1.73,1.73,0,0,0-1.18.44,1.77,1.77,0,0,0-.55,1.22h3.46A1.68,1.68,0,0,0,49,13.82Z" transform="translate(-2.5 -1.5)"/><path class="cls-2" d="M53.39,17l1.7-4.64h1l-2.15,5.48H52.85L50.7,12.37h1Z" transform="translate(-2.5 -1.5)"/><path class="cls-2" d="M56.81,17.73a.63.63,0,0,1,0-.88.59.59,0,0,1,.44-.18.58.58,0,0,1,.42.18.63.63,0,0,1,0,.88.58.58,0,0,1-.42.18A.59.59,0,0,1,56.81,17.73Z" transform="translate(-2.5 -1.5)"/><path class="cls-2" d="M62.56,12.59a2.14,2.14,0,0,1,.8.78v-1h.92V18A2.79,2.79,0,0,1,64,19.31a2.3,2.3,0,0,1-.92.91,2.79,2.79,0,0,1-1.38.33,3,3,0,0,1-1.8-.51A2,2,0,0,1,59,18.65h.9a1.45,1.45,0,0,0,.62.81,2,2,0,0,0,1.13.3,1.66,1.66,0,0,0,1.22-.47A1.75,1.75,0,0,0,63.36,18V16.82a2.19,2.19,0,0,1-.8.8,2.41,2.41,0,0,1-1.24.32,2.48,2.48,0,0,1-2.26-1.37,3.11,3.11,0,0,1-.34-1.48,3,3,0,0,1,.34-1.47,2.41,2.41,0,0,1,.93-1,2.62,2.62,0,0,1,1.33-.35A2.38,2.38,0,0,1,62.56,12.59ZM63.11,14a1.7,1.7,0,0,0-.68-.7,1.75,1.75,0,0,0-.93-.25,1.84,1.84,0,0,0-.93.24,1.68,1.68,0,0,0-.67.7,2.21,2.21,0,0,0-.25,1.08,2.26,2.26,0,0,0,.25,1.1,1.77,1.77,0,0,0,.67.71,1.92,1.92,0,0,0,1.86,0,1.79,1.79,0,0,0,.68-.71,2.37,2.37,0,0,0,.25-1.09A2.33,2.33,0,0,0,63.11,14Z" transform="translate(-2.5 -1.5)"/><path class="cls-2" d="M66.81,17.59a2.52,2.52,0,0,1-1-1,3,3,0,0,1-.35-1.5,3,3,0,0,1,.36-1.48,2.51,2.51,0,0,1,1-1,3,3,0,0,1,2.82,0,2.46,2.46,0,0,1,1,1A2.89,2.89,0,0,1,71,15.1a2.93,2.93,0,0,1-.38,1.5,2.6,2.6,0,0,1-1,1,3,3,0,0,1-1.42.35A2.85,2.85,0,0,1,66.81,17.59Zm2.32-.68a1.7,1.7,0,0,0,.69-.69,2.19,2.19,0,0,0,.27-1.12A2.29,2.29,0,0,0,69.83,14a1.71,1.71,0,0,0-.68-.68,1.94,1.94,0,0,0-1.83,0,1.55,1.55,0,0,0-.66.68,2.29,2.29,0,0,0-.25,1.12,2.42,2.42,0,0,0,.24,1.13,1.63,1.63,0,0,0,.66.69,1.82,1.82,0,0,0,.9.22A2,2,0,0,0,69.13,16.91Z" transform="translate(-2.5 -1.5)"/><path class="cls-2" d="M76.94,12.37l-3.3,8.06H72.7l1.08-2.64-2.21-5.42h1l1.72,4.44L76,12.37Z" transform="translate(-2.5 -1.5)"/><path class="cls-2" d="M79,13.12v3.23a.75.75,0,0,0,.17.57.83.83,0,0,0,.59.16h.67v.77h-.82a1.64,1.64,0,0,1-1.14-.35,1.48,1.48,0,0,1-.38-1.15V13.12h-.71v-.75h.71V11H79v1.38h1.43v.75Z" transform="translate(-2.5 -1.5)"/><path class="cls-2" d="M81.49,13.62a2.41,2.41,0,0,1,.93-1,2.62,2.62,0,0,1,1.33-.35,2.42,2.42,0,0,1,1.25.31,2.19,2.19,0,0,1,.79.78v-1h.92v5.48h-.92v-1a2.15,2.15,0,0,1-.81.8,2.38,2.38,0,0,1-1.24.31,2.48,2.48,0,0,1-2.25-1.37,3.11,3.11,0,0,1-.34-1.48A3,3,0,0,1,81.49,13.62Zm4.05.4a1.7,1.7,0,0,0-.68-.7,1.75,1.75,0,0,0-.93-.25,1.84,1.84,0,0,0-.93.24,1.68,1.68,0,0,0-.67.7,2.21,2.21,0,0,0-.25,1.08,2.26,2.26,0,0,0,.25,1.1,1.77,1.77,0,0,0,.67.71,1.92,1.92,0,0,0,1.86,0,1.79,1.79,0,0,0,.68-.71,2.37,2.37,0,0,0,.25-1.09A2.33,2.33,0,0,0,85.54,14Z" transform="translate(-2.5 -1.5)"/><path class="cls-2" d="M88.28,11.3a.63.63,0,0,1,0-.88.59.59,0,0,1,.44-.18.58.58,0,0,1,.42.18.63.63,0,0,1,0,.88.58.58,0,0,1-.42.18A.59.59,0,0,1,88.28,11.3Zm.88,1.07v5.48h-.91V12.37Z" transform="translate(-2.5 -1.5)"/><path class="cls-2" d="M32.45,9.19V21.45A1.44,1.44,0,0,1,31,22.89H27.64V14.72l-5.77,4.33L16.1,14.72v8.17H12.74a1.44,1.44,0,0,1-1.45-1.44h0V9.19a2.17,2.17,0,0,1,3.47-1.73l1.34,1,5.77,4.32,5.77-4.33,1.35-1A2.16,2.16,0,0,1,32.45,9.19Z" transform="translate(-2.5 -1.5)"/></svg>