<svg id="Camada_1" data-name="Camada 1" xmlns="http://www.w3.org/2000/svg" viewBox="0 0 96 27"><defs><style>.cls-1{fill:#0a66c2;}.cls-2{fill:#fff;}</style></defs><rect class="cls-1" width="96" height="27" rx="10"/><path class="cls-2" d="M27.52,20.25H25.17V16.57c0-.88,0-2-1.22-2s-1.42.95-1.42,1.94v3.75H20.18V12.68h2.26v1h0a2.49,2.49,0,0,1,2.23-1.23c2.38,0,2.82,1.57,2.82,3.61v4.16Zm-10-8.61a1.37,1.37,0,1,1,1.36-1.37A1.36,1.36,0,0,1,17.53,11.64Zm1.18,8.61H16.35V12.68h2.36Zm10-13.53H15.17A1.16,1.16,0,0,0,14,7.87V21.45a1.16,1.16,0,0,0,1.17,1.15H28.7a1.17,1.17,0,0,0,1.17-1.15V7.87A1.17,1.17,0,0,0,28.7,6.72Z" transform="translate(-2.5 -1.5)"/><path class="cls-2" d="M44.29,18.55h-.91L39.72,13v5.55h-.91v-7h.91l3.66,5.54V11.57h.91Z" transform="translate(-2.5 -1.5)"/><path class="cls-2" d="M45.84,14.32A2.5,2.5,0,0,1,48.1,13a2.49,2.49,0,0,1,1.25.31,2,2,0,0,1,.79.78v-1h.92v5.48h-.92v-1a2.19,2.19,0,0,1-.8.8,2.42,2.42,0,0,1-1.25.31,2.48,2.48,0,0,1-2.25-1.37,3.2,3.2,0,0,1-.34-1.48A3.13,3.13,0,0,1,45.84,14.32Zm4,.4a1.74,1.74,0,0,0-.67-.7,1.81,1.81,0,0,0-.94-.25,1.84,1.84,0,0,0-.93.24,1.81,1.81,0,0,0-.67.7,2.33,2.33,0,0,0-.25,1.08,2.38,2.38,0,0,0,.25,1.1,1.77,1.77,0,0,0,.67.71,1.84,1.84,0,0,0,.93.24,1.91,1.91,0,0,0,.94-.24,1.7,1.7,0,0,0,.67-.71,2.48,2.48,0,0,0,0-2.17Z" transform="translate(-2.5 -1.5)"/><path class="cls-2" d="M53.71,13.82v3.23a.79.79,0,0,0,.17.57.85.85,0,0,0,.59.16h.67v.77h-.82a1.62,1.62,0,0,1-1.14-.35,1.5,1.5,0,0,1-.38-1.15V13.82h-.71v-.75h.71V11.69h.91v1.38h1.43v.75Z" transform="translate(-2.5 -1.5)"/><path class="cls-2" d="M60.08,13.24a1.88,1.88,0,0,1,.79.79,2.73,2.73,0,0,1,.28,1.29v3.23h-.9v-3.1a1.73,1.73,0,0,0-.41-1.25,1.45,1.45,0,0,0-1.12-.44,1.48,1.48,0,0,0-1.14.45,1.82,1.82,0,0,0-.43,1.31v3h-.91v-7.4h.91v2.7a1.83,1.83,0,0,1,.75-.65A2.43,2.43,0,0,1,59,13,2.29,2.29,0,0,1,60.08,13.24Z" transform="translate(-2.5 -1.5)"/><path class="cls-2" d="M62.64,14.32A2.5,2.5,0,0,1,64.9,13a2.49,2.49,0,0,1,1.25.31,2.11,2.11,0,0,1,.79.78v-1h.92v5.48h-.92v-1a2.19,2.19,0,0,1-.8.8,2.42,2.42,0,0,1-1.25.31,2.48,2.48,0,0,1-2.25-1.37,3.2,3.2,0,0,1-.34-1.48A3.13,3.13,0,0,1,62.64,14.32Zm4,.4A1.74,1.74,0,0,0,66,14a1.81,1.81,0,0,0-.94-.25,1.84,1.84,0,0,0-.93.24,1.81,1.81,0,0,0-.67.7,2.33,2.33,0,0,0-.25,1.08,2.38,2.38,0,0,0,.25,1.1,1.77,1.77,0,0,0,.67.71,1.84,1.84,0,0,0,.93.24A1.91,1.91,0,0,0,66,17.6a1.7,1.7,0,0,0,.67-.71,2.48,2.48,0,0,0,0-2.17Z" transform="translate(-2.5 -1.5)"/><path class="cls-2" d="M73.69,13.58a2.29,2.29,0,0,1,.62,1.74v3.23h-.9v-3.1A1.73,1.73,0,0,0,73,14.2a1.45,1.45,0,0,0-1.12-.44,1.48,1.48,0,0,0-1.14.45,1.82,1.82,0,0,0-.43,1.31v3H69.4V13.07h.91v.78a1.87,1.87,0,0,1,.74-.65,2.31,2.31,0,0,1,1-.23A2.19,2.19,0,0,1,73.69,13.58Z" transform="translate(-2.5 -1.5)"/><path class="cls-2" d="M84.23,11.58l-2.63,7h-1l-2.63-7h1l2.19,6,2.19-6Z" transform="translate(-2.5 -1.5)"/><path class="cls-2" d="M85.08,18.43A.59.59,0,0,1,84.9,18a.61.61,0,0,1,.62-.62.58.58,0,0,1,.43.18.64.64,0,0,1,.17.44.62.62,0,0,1-.17.44.58.58,0,0,1-.43.18A.6.6,0,0,1,85.08,18.43Z" transform="translate(-2.5 -1.5)"/></svg>